<svg xmlns="http://www.w3.org/2000/svg" xmlns:xlink="http://www.w3.org/1999/xlink" width="307.92" height="260.322" viewBox="0 0 307.92 260.322">
  <defs>
    <filter id="패스_17" x="40.621" y="34.158" width="220.352" height="226.164" filterUnits="userSpaceOnUse">
      <feOffset input="SourceAlpha"/>
      <feGaussianBlur stdDeviation="5" result="blur"/>
      <feFlood flood-color="#fff"/>
      <feComposite operator="in" in2="blur"/>
      <feComposite in="SourceGraphic"/>
    </filter>
    <filter id="패스_618" x="0" y="155.373" width="42.076" height="42.076" filterUnits="userSpaceOnUse">
      <feOffset input="SourceAlpha"/>
      <feGaussianBlur stdDeviation="3" result="blur-2"/>
      <feFlood flood-color="#fff"/>
      <feComposite operator="in" in2="blur-2"/>
      <feComposite in="SourceGraphic"/>
    </filter>
    <filter id="패스_619" x="277.314" y="145.236" width="30.605" height="30.604" filterUnits="userSpaceOnUse">
      <feOffset input="SourceAlpha"/>
      <feGaussianBlur stdDeviation="3" result="blur-3"/>
      <feFlood flood-color="#fff"/>
      <feComposite operator="in" in2="blur-3"/>
      <feComposite in="SourceGraphic"/>
    </filter>
    <filter id="타원_21" x="182.826" y="0" width="32.566" height="32.566" filterUnits="userSpaceOnUse">
      <feOffset input="SourceAlpha"/>
      <feGaussianBlur stdDeviation="3" result="blur-4"/>
      <feFlood flood-color="#fff"/>
      <feComposite operator="in" in2="blur-4"/>
      <feComposite in="SourceGraphic"/>
    </filter>
    <filter id="패스_18">
      <feOffset input="SourceAlpha"/>
      <feGaussianBlur stdDeviation="2" result="blur-5"/>
      <feFlood flood-color="#fff" flood-opacity="0.451" result="color"/>
      <feComposite operator="out" in="SourceGraphic" in2="blur-5"/>
      <feComposite operator="in" in="color"/>
      <feComposite operator="in" in2="SourceGraphic"/>
    </filter>
    <linearGradient id="linear-gradient" x1="0.5" x2="0.5" y2="1" gradientUnits="objectBoundingBox">
      <stop offset="0" stop-color="#ee3dff"/>
      <stop offset="0.167" stop-color="#7824f8"/>
      <stop offset="0.363" stop-color="#2a15e6"/>
      <stop offset="0.591" stop-color="#006cc9"/>
      <stop offset="0.784" stop-color="#00bcdd"/>
      <stop offset="1" stop-color="#15ce86"/>
    </linearGradient>
    <filter id="vivid-gradient-colors-abstract-background" x="67.453" y="60.992" width="166.691" height="172.502" filterUnits="userSpaceOnUse">
      <feOffset input="SourceAlpha"/>
      <feGaussianBlur stdDeviation="2" result="blur-6"/>
      <feFlood flood-opacity="0.251"/>
      <feComposite operator="in" in2="blur-6"/>
      <feComposite in="SourceGraphic"/>
    </filter>
  </defs>
  <g id="그룹_4206" data-name="그룹 4206" transform="translate(-58.332 -346.053)">
    <g transform="matrix(1, 0, 0, 1, 58.33, 346.05)" filter="url(#패스_17)">
      <path id="패스_17-2" data-name="패스 17" d="M626.45,481.487a98.091,98.091,0,0,1-7.172-195.908c2.38-.171,4.792-.257,7.169-.257a98.481,98.481,0,0,1,88.914,56.631,33.068,33.068,0,0,1-11.411,41.3,32.773,32.773,0,0,1,9.569,9.666,32.3,32.3,0,0,1,2.3,30.958A98.326,98.326,0,0,1,626.45,481.487Zm-.02-130.152c-.964,0-1.944.044-2.919.128a32.07,32.07,0,0,0-20.466,53.858,31.761,31.761,0,0,0,23.4,10.154,32.242,32.242,0,0,0,29.06-18.493,33.416,33.416,0,0,1,11.718-13.592,33.4,33.4,0,0,1-11.744-13.621A32.241,32.241,0,0,0,626.43,351.335Z" transform="translate(-472.75 -236.16)" fill="#271c5b"/>
    </g>
    <g transform="matrix(1, 0, 0, 1, 58.33, 346.05)" filter="url(#패스_618)">
      <path id="패스_618-2" data-name="패스 618" d="M17.027,8.513A8.514,8.514,0,1,1,8.514,0,8.514,8.514,0,0,1,17.027,8.513Z" transform="matrix(0.72, -0.69, 0.69, 0.72, 9, 176.2)" fill="#fff"/>
    </g>
    <g transform="matrix(1, 0, 0, 1, 58.33, 346.05)" filter="url(#패스_619)">
      <path id="패스_619-2" data-name="패스 619" d="M8.914,4.457A4.457,4.457,0,1,1,4.457,0,4.457,4.457,0,0,1,8.914,4.457Z" transform="matrix(0.72, -0.69, 0.69, 0.72, 286.31, 160.43)" fill="#fff"/>
    </g>
    <g transform="matrix(1, 0, 0, 1, 58.33, 346.05)" filter="url(#타원_21)">
      <ellipse id="타원_21-2" data-name="타원 21" cx="5.151" cy="5.15" rx="5.151" ry="5.15" transform="matrix(0.72, -0.69, 0.69, 0.72, 191.83, 16.16)" fill="#fff"/>
    </g>
    <g data-type="innerShadowGroup">
      <path id="패스_18-2" data-name="패스 18" d="M624.584,470.7a89.175,89.175,0,0,1-6.537-178.1c2.171-.156,4.369-.234,6.534-.234a89.535,89.535,0,0,1,80.836,51.486,24.065,24.065,0,0,1-34.945,30.354,24.585,24.585,0,0,1-8.8-10.125,41.178,41.178,0,0,0-37.112-23.534c-1.219,0-2.46.053-3.687.159a41.145,41.145,0,0,0-37.182,38.032,41,41,0,0,0,40.889,43.778,41.2,41.2,0,0,0,37.132-23.617,24.1,24.1,0,0,1,21.624-13.955h.784a23.743,23.743,0,0,1,20.033,10.93,23.423,23.423,0,0,1,1.676,22.445A89.4,89.4,0,0,1,624.584,470.7Z" transform="translate(-412.548 111.757)" fill="#f7f7f7"/>
      <g transform="matrix(1, 0, 0, 1, 58.33, 346.05)" filter="url(#패스_18)">
        <path id="패스_18-3" data-name="패스 18" d="M624.584,470.7a89.175,89.175,0,0,1-6.537-178.1c2.171-.156,4.369-.234,6.534-.234a89.535,89.535,0,0,1,80.836,51.486,24.065,24.065,0,0,1-34.945,30.354,24.585,24.585,0,0,1-8.8-10.125,41.178,41.178,0,0,0-37.112-23.534c-1.219,0-2.46.053-3.687.159a41.145,41.145,0,0,0-37.182,38.032,41,41,0,0,0,40.889,43.778,41.2,41.2,0,0,0,37.132-23.617,24.1,24.1,0,0,1,21.624-13.955h.784a23.743,23.743,0,0,1,20.033,10.93,23.423,23.423,0,0,1,1.676,22.445A89.4,89.4,0,0,1,624.584,470.7Z" transform="translate(-470.88 -234.3)" fill="#fff"/>
      </g>
    </g>
    <g transform="matrix(1, 0, 0, 1, 58.33, 346.05)" filter="url(#vivid-gradient-colors-abstract-background)">
      <path id="vivid-gradient-colors-abstract-background-2" data-name="vivid-gradient-colors-abstract-background" d="M695.847,412.775a80.265,80.265,0,0,1-153.32-36.234c1.552-40.549,33.827-74.02,74.288-76.908a80.266,80.266,0,0,1,78.656,46.13,15.177,15.177,0,0,1-13.765,21.577,14.87,14.87,0,0,1-8.2-2.443,15.748,15.748,0,0,1-5.635-6.49,49.9,49.9,0,1,0,.054,42.422A15.037,15.037,0,0,1,681.474,392h.785A14.79,14.79,0,0,1,695.847,412.775Z" transform="translate(-469.01 -232.43)" fill="url(#linear-gradient)"/>
    </g>
    <g id="그룹_7" data-name="그룹 7" transform="translate(198.318 478.564)">
      <path id="패스_23" data-name="패스 23" d="M2950.192,1815.152c0,2.271-1.549,4.13-3.441,4.13s-3.442-1.858-3.442-4.13v-21.406c0-2.271,1.549-4.13,3.442-4.13s3.441,1.858,3.441,4.13Z" transform="translate(-2943.309 -1789.616)" fill="#fff"/>
    </g>
    <g id="그룹_8" data-name="그룹 8" transform="translate(208.85 472.955)">
      <path id="패스_24" data-name="패스 24" d="M3101.514,1729.245c0,2.271-1.548,4.13-3.442,4.13s-3.44-1.859-3.44-4.13v-16.106c0-2.272,1.548-4.13,3.44-4.13s3.442,1.858,3.442,4.13Z" transform="translate(-3094.632 -1709.009)" fill="#fff"/>
    </g>
    <g id="그룹_9" data-name="그룹 9" transform="translate(229.602 484.07)">
      <path id="패스_25" data-name="패스 25" d="M3399.706,1877.721c0,2.271-1.548,4.129-3.442,4.129s-3.441-1.858-3.441-4.129v-4.853c0-2.271,1.549-4.13,3.441-4.13s3.442,1.858,3.442,4.13Z" transform="translate(-3392.822 -1868.738)" fill="#fff"/>
    </g>
    <g id="그룹_10" data-name="그룹 10" transform="translate(219.244 488.132)">
      <path id="패스_26" data-name="패스 26" d="M3250.857,1948.463c0,2.271-1.548,4.129-3.441,4.129s-3.441-1.859-3.441-4.129V1931.22c0-2.271,1.549-4.129,3.441-4.129s3.441,1.858,3.441,4.129Z" transform="translate(-3243.974 -1927.091)" fill="#fff"/>
    </g>
    <g id="그룹_11" data-name="그룹 11" transform="translate(187.582 489.337)">
      <path id="패스_27" data-name="패스 27" d="M2795.9,1954.345c0,2.271-1.547,4.13-3.44,4.13s-3.442-1.858-3.442-4.13v-5.816c0-2.271,1.549-4.13,3.442-4.13s3.44,1.858,3.44,4.13Z" transform="translate(-2789.02 -1944.399)" fill="#fff"/>
    </g>
  </g>
</svg>
