<?xml version="1.0" standalone="no"?>
<!DOCTYPE svg PUBLIC "-//W3C//DTD SVG 20010904//EN"
 "http://www.w3.org/TR/2001/REC-SVG-20010904/DTD/svg10.dtd">
<svg version="1.0" xmlns="http://www.w3.org/2000/svg"
 width="840.000000pt" height="572.000000pt" viewBox="0 0 840.000000 572.000000"
 preserveAspectRatio="xMidYMid meet">

<g transform="translate(0.000000,572.000000) scale(0.100000,-0.100000)"
fill="#000000" stroke="none">
<path d="M3955 5410 c-489 -55 -912 -221 -1303 -511 -125 -93 -398 -366 -491
-491 -360 -485 -538 -1041 -518 -1628 13 -381 94 -706 261 -1045 139 -282 288
-487 517 -710 213 -207 404 -341 673 -471 325 -157 649 -237 1016 -251 589
-22 1160 160 1639 521 119 89 319 281 423 406 173 206 347 511 437 765 232
655 196 1352 -103 1971 -130 269 -264 460 -471 673 -223 229 -428 378 -710
517 -249 122 -484 196 -765 239 -124 19 -488 28 -605 15z m415 -40 c591 -45
1113 -270 1535 -661 481 -446 761 -1034 806 -1693 41 -610 -153 -1230 -539
-1721 -71 -90 -317 -336 -407 -407 -675 -530 -1556 -683 -2371 -412 -246 82
-475 203 -704 372 -124 92 -370 330 -462 447 -115 148 -231 333 -305 494 -317
677 -317 1467 -1 2141 76 162 191 348 306 495 84 107 345 362 454 443 437 327
932 495 1498 510 30 1 116 -3 190 -8z"/>
<path d="M4100 4054 c-174 -25 -276 -54 -409 -115 -376 -174 -649 -549 -701
-963 -48 -375 78 -749 342 -1021 178 -185 424 -318 667 -360 111 -20 342 -19
462 1 579 97 953 558 951 1174 0 74 -4 155 -9 180 l-9 45 -581 3 -580 2 -7
-31 c-3 -17 -6 -112 -6 -210 l0 -179 351 0 352 0 -6 -45 c-13 -88 -101 -231
-199 -320 -72 -65 -189 -126 -293 -152 -100 -24 -307 -24 -395 1 -284 82 -483
287 -555 571 -26 100 -24 284 4 388 76 288 322 518 605 568 105 18 273 7 372
-25 79 -25 184 -84 234 -132 l26 -24 167 161 c194 187 189 160 53 261 -153
114 -354 193 -556 218 -80 9 -225 12 -280 4z"/>
</g>
</svg>
