<?xml version="1.0" standalone="no"?>
<!DOCTYPE svg PUBLIC "-//W3C//DTD SVG 20010904//EN"
 "http://www.w3.org/TR/2001/REC-SVG-20010904/DTD/svg10.dtd">
<svg version="1.0" xmlns="http://www.w3.org/2000/svg"
 width="512.000000pt" height="512.000000pt" viewBox="0 0 512.000000 512.000000"
 preserveAspectRatio="xMidYMid meet">

<g transform="translate(0.000000,512.000000) scale(0.100000,-0.100000)"
fill="#000000" stroke="none">
<path d="M2320 5109 c-467 -45 -917 -220 -1300 -507 -191 -144 -410 -368 -553
-568 l-37 -52 437 -252 438 -252 24 33 c49 68 258 267 338 322 301 211 671
311 1021 279 313 -30 585 -137 832 -327 71 -55 116 -70 168 -56 55 15 78 36
349 309 215 216 242 247 252 288 24 95 -8 142 -189 278 -450 339 -1002 520
-1565 515 -71 -1 -168 -5 -215 -10z"/>
<path d="M220 3598 c-89 -195 -166 -467 -202 -723 -17 -120 -17 -503 0 -625
23 -162 62 -329 111 -480 50 -150 131 -341 143 -337 4 1 198 112 433 247 365
210 425 248 421 265 -2 11 -20 65 -40 120 -69 199 -97 418 -78 618 15 156 35
247 78 372 20 55 37 109 40 120 4 17 -56 55 -421 265 -234 135 -430 246 -434
248 -4 1 -27 -39 -51 -90z"/>
<path d="M2801 3000 c-49 -12 -83 -40 -109 -91 -23 -44 -23 -45 -20 -420 l3
-376 28 -36 c57 -76 21 -72 700 -75 334 -1 607 -5 607 -8 0 -20 -108 -224
-161 -304 -60 -91 -257 -302 -337 -362 l-34 -25 248 -429 c136 -236 248 -431
250 -433 2 -2 45 29 97 68 335 252 591 559 781 938 189 379 279 789 262 1203
-4 91 -10 185 -15 209 -14 72 -65 125 -137 141 -48 12 -2115 11 -2163 0z"/>
<path d="M875 1395 c-231 -134 -424 -246 -429 -248 -26 -9 154 -239 308 -393
750 -749 1865 -962 2820 -537 59 27 108 53 107 58 0 6 -110 200 -243 433 -209
363 -246 422 -263 418 -11 -2 -65 -20 -120 -40 -461 -162 -977 -87 -1390 202
-88 62 -265 228 -322 304 -21 26 -40 48 -43 47 -3 0 -194 -110 -425 -244z"/>
</g>
</svg>
