<svg xmlns="http://www.w3.org/2000/svg" xmlns:xlink="http://www.w3.org/1999/xlink" width="88.979" height="90.509" viewBox="0 0 88.979 90.509">
  <defs>
    <filter id="iconmonstr-loading-10" x="0" y="0" width="88.979" height="90.509" filterUnits="userSpaceOnUse">
      <feOffset input="SourceAlpha"/>
      <feGaussianBlur stdDeviation="3" result="blur"/>
      <feFlood flood-opacity="0.639"/>
      <feComposite operator="in" in2="blur"/>
      <feComposite in="SourceGraphic"/>
    </filter>
  </defs>
  <g transform="matrix(1, 0, 0, 1, 0, 0)" filter="url(#iconmonstr-loading-10)">
    <path id="iconmonstr-loading-10-2" data-name="iconmonstr-loading-10" d="M41.979,67.166a5.343,5.343,0,1,1-5.343-5.343A5.343,5.343,0,0,1,41.979,67.166ZM36.636,0a6.106,6.106,0,1,0,6.106,6.106A6.108,6.108,0,0,0,36.636,0Zm30.53,32.82a3.816,3.816,0,1,1-3.813,3.816A3.819,3.819,0,0,1,67.166,32.82ZM0,36.636A6.106,6.106,0,1,0,6.106,30.53,6.106,6.106,0,0,0,0,36.636ZM58.007,12.212a3.053,3.053,0,1,1-3.053,3.059A3.058,3.058,0,0,1,58.007,12.212Zm0,41.216a4.58,4.58,0,1,1-4.58,4.583A4.581,4.581,0,0,1,58.007,53.428ZM15.265,9.159a6.106,6.106,0,1,1-6.106,6.106A6.108,6.108,0,0,1,15.265,9.159Zm0,42.742a6.106,6.106,0,1,1-6.106,6.106A6.108,6.108,0,0,1,15.265,51.9Z" transform="translate(9 9)" fill="#fff"/>
  </g>
</svg>
