<svg xmlns="http://www.w3.org/2000/svg" xmlns:xlink="http://www.w3.org/1999/xlink" width="42" height="38" viewBox="0 0 42 38">
  <defs>
    <filter id="iconmonstr-picture-thin" x="0" y="0" width="42" height="38" filterUnits="userSpaceOnUse">
      <feOffset input="SourceAlpha"/>
      <feGaussianBlur stdDeviation="3" result="blur"/>
      <feFlood flood-opacity="0.325"/>
      <feComposite operator="in" in2="blur"/>
      <feComposite in="SourceGraphic"/>
    </filter>
  </defs>
  <g transform="matrix(1, 0, 0, 1, 0, 0)" filter="url(#iconmonstr-picture-thin)">
    <path id="iconmonstr-picture-thin-2" data-name="iconmonstr-picture-thin" d="M24,22H0V2H24ZM23,3H1V21H23ZM22,19H3l4-7.492,3,3.048L15.013,7ZM10.152,16.135l-2.91-2.956L4.668,18H20.261l-5.3-9.108-4.806,7.243ZM5.5,5A2.5,2.5,0,1,1,3,7.5,2.5,2.5,0,0,1,5.5,5Zm0,1A1.5,1.5,0,1,1,4,7.5,1.5,1.5,0,0,1,5.5,6Z" transform="translate(9 7)" fill="#fff" fill-rule="evenodd"/>
  </g>
</svg>
