<svg xmlns="http://www.w3.org/2000/svg" xmlns:xlink="http://www.w3.org/1999/xlink" width="42" height="38" viewBox="0 0 42 38">
  <defs>
    <filter id="iconmonstr-photo-camera-thin" x="0" y="0" width="42" height="38" filterUnits="userSpaceOnUse">
      <feOffset input="SourceAlpha"/>
      <feGaussianBlur stdDeviation="3" result="blur"/>
      <feFlood flood-opacity="0.514"/>
      <feComposite operator="in" in2="blur"/>
      <feComposite in="SourceGraphic"/>
    </filter>
    <filter id="iconmonstr-refresh-6" x="5.872" y="6.764" width="30.252" height="27.189" filterUnits="userSpaceOnUse">
      <feOffset input="SourceAlpha"/>
      <feGaussianBlur stdDeviation="3" result="blur-2"/>
      <feFlood flood-opacity="0.514"/>
      <feComposite operator="in" in2="blur-2"/>
      <feComposite in="SourceGraphic"/>
    </filter>
  </defs>
  <g id="그룹_4208" data-name="그룹 4208" transform="translate(-366.905 -63)">
    <g transform="matrix(1, 0, 0, 1, 366.9, 63)" filter="url(#iconmonstr-photo-camera-thin)">
      <path id="iconmonstr-photo-camera-thin-2" data-name="iconmonstr-photo-camera-thin" d="M16.983,2l1.406,2.109A2,2,0,0,0,20.053,5h3.93V22h-24V5h5.93a2,2,0,0,0,1.664-.891L8.983,2h8Zm3.07,4a2.993,2.993,0,0,1-2.5-1.337L16.448,3H9.518L8.409,4.664A2.993,2.993,0,0,1,5.913,6H.983V21h22V6ZM2,3H5V4H2Z" transform="translate(9.02 7)" fill="#fff" fill-rule="evenodd"/>
    </g>
    <g transform="matrix(1, 0, 0, 1, 366.9, 63)" filter="url(#iconmonstr-refresh-6)">
      <path id="iconmonstr-refresh-6-2" data-name="iconmonstr-refresh-6" d="M10.692,8.094a4.589,4.589,0,0,1-8.018,2.525l.636-.834A3.566,3.566,0,0,0,9.66,8.094H8.168l2.042-2.68,2.042,2.68Zm-8.1-1.01A3.566,3.566,0,0,1,8.939,5.4l.635-.833A4.588,4.588,0,0,0,1.562,7.084H0l2.042,2.68,2.042-2.68Z" transform="translate(14.87 12.76)" fill="#fff"/>
    </g>
  </g>
</svg>
