<svg xmlns="http://www.w3.org/2000/svg" xmlns:xlink="http://www.w3.org/1999/xlink" width="40" height="42" viewBox="0 0 40 42">
  <defs>
    <filter id="iconmonstr-trash-can-thin" x="0" y="0" width="40" height="42" filterUnits="userSpaceOnUse">
      <feOffset input="SourceAlpha"/>
      <feGaussianBlur stdDeviation="3" result="blur"/>
      <feFlood flood-opacity="0.514"/>
      <feComposite operator="in" in2="blur"/>
      <feComposite in="SourceGraphic"/>
    </filter>
  </defs>
  <g transform="matrix(1, 0, 0, 1, 0, 0)" filter="url(#iconmonstr-trash-can-thin)">
    <path id="iconmonstr-trash-can-thin-2" data-name="iconmonstr-trash-can-thin" d="M9,3h6V1.25A.249.249,0,0,0,14.75,1H9.25A.249.249,0,0,0,9,1.25ZM20,4H4V22a1,1,0,0,0,1,1H19a1,1,0,0,0,1-1ZM10,7.5a.5.5,0,0,0-1,0v12a.5.5,0,0,0,1,0Zm5,0a.5.5,0,0,0-1,0v12a.5.5,0,0,0,1,0ZM23,3V4H21V22a2,2,0,0,1-2,2H5a2,2,0,0,1-2-2V4H1V3H8V1A1,1,0,0,1,9,0h6a1,1,0,0,1,1,1V3Z" transform="translate(8 9)" fill="#fff" fill-rule="evenodd"/>
  </g>
</svg>
