<svg xmlns="http://www.w3.org/2000/svg" width="67" height="67" viewBox="0 0 67 67">
  <g id="그룹_4207" data-name="그룹 4207" transform="translate(-181 -481)">
    <g id="타원_42" data-name="타원 42" transform="translate(181 481)" fill="#fff" stroke="#ddd" stroke-width="1">
      <circle cx="33.5" cy="33.5" r="33.5" stroke="none"/>
      <circle cx="33.5" cy="33.5" r="33" fill="none"/>
    </g>
    <g id="그룹_149" data-name="그룹 149" transform="translate(200.15 501)">
      <path id="패스_272" data-name="패스 272" d="M2149.149,3216.879c-7.81,0-14.14,5.034-14.14,11.241,0,3.848,2.432,7.244,6.141,9.271l-1.022,5.48a.314.314,0,0,0,.482.32l6.074-4s1.624.171,2.466.171c7.809,0,14.139-5.033,14.139-11.241S2156.958,3216.879,2149.149,3216.879Z" transform="translate(-2135.009 -3216.879)" fill="#281755"/>
      <g id="그룹_146" data-name="그룹 146" transform="translate(3.645 8.01)">
        <path id="패스_273" data-name="패스 273" d="M2148.225,3235.669h-4.075a.7.7,0,0,0,0,1.4h1.325v4.92a.687.687,0,0,0,.2.481.67.67,0,0,0,.477.2h.148a.673.673,0,0,0,.476-.2.688.688,0,0,0,.2-.482v-4.92h1.251a.7.7,0,0,0,0-1.4Z" transform="translate(-2143.456 -3235.571)" fill="#fff"/>
        <path id="패스_274" data-name="패스 274" d="M2172.13,3241.224h-1.894V3236.2a.752.752,0,1,0-1.5,0v5.659a.632.632,0,0,0,.629.635h2.769a.634.634,0,0,0,0-1.269Z" transform="translate(-2157.826 -3235.442)" fill="#fff"/>
        <path id="패스_275" data-name="패스 275" d="M2184.106,3241.455l-2.112-2.8,1.909-1.923a.672.672,0,0,0,0-.943.659.659,0,0,0-.937,0l-2.363,2.38V3236.2a.752.752,0,1,0-1.5,0v5.582a.752.752,0,1,0,1.5,0v-1.722l.43-.433,2,2.642a.668.668,0,0,0,.942.135A.68.68,0,0,0,2184.106,3241.455Z" transform="translate(-2163.72 -3235.442)" fill="#fff"/>
        <path id="패스_276" data-name="패스 276" d="M2159.717,3241.635l-2.031-5.6-.007-.006a1,1,0,0,0-.951-.589,1.167,1.167,0,0,0-.326.046,1.1,1.1,0,0,0-.282.128.941.941,0,0,0-.219.2.872.872,0,0,0-.1.165c-.025.052-.125.339-.157.427l-.035.093-.042.112-.047.128-.054.144-.058.158-.063.171-.067.182-.071.192-.075.2-.077.208-.079.214-.081.218-.082.221-.083.224-.083.224-.082.223-.082.22-.08.217-.078.212-.076.205-.073.2-.07.189-.066.178-.061.166-.057.153-.051.138-.046.122-.038.1-.032.086-.024.065-.017.044-.009.023a.681.681,0,0,0,.412.866.673.673,0,0,0,.86-.416l.346-.993h2.779l.345.993a.672.672,0,0,0,.859.416A.681.681,0,0,0,2159.717,3241.635Zm-3.955-1.812.934-2.686c.011,0,.02,0,.03,0l.934,2.682Z" transform="translate(-2149.26 -3235.442)" fill="#fff"/>
      </g>
    </g>
  </g>
</svg>
